<svg id="Warstwa_1" data-name="Warstwa 1" xmlns="http://www.w3.org/2000/svg" viewBox="0 0 350 350"><g id="icon"><path d="M344.8,81.4a16.67,16.67,0,0,0-13.47-6.75H64.69L61.24,61.37A23.93,23.93,0,0,0,38.07,43.45H2a3.89,3.89,0,0,0,0,7.78H38.07a16.15,16.15,0,0,1,15.64,12.1L97.15,230.58a3.88,3.88,0,0,0,3.76,2.91H304a3.89,3.89,0,1,0,0-7.78h-200L94.59,189.8H301.93a24,24,0,0,0,22.92-17.13l22.6-76.44A16.68,16.68,0,0,0,344.8,81.4ZM340,94l-22.6,76.43A16.22,16.22,0,0,1,301.92,182H92.57L66.71,82.43H331.32A9,9,0,0,1,340,94Z"/><path d="M136,302.76a26.54,26.54,0,1,1,26.55-26.53A26.56,26.56,0,0,1,136,302.76Zm0-45.3a18.76,18.76,0,1,0,18.77,18.76A18.78,18.78,0,0,0,136,257.46Z"/><path d="M263.63,302.76a26.54,26.54,0,1,1,26.54-26.53A26.56,26.56,0,0,1,263.63,302.76Zm0-45.3a18.76,18.76,0,1,0,18.76,18.76A18.78,18.78,0,0,0,263.63,257.46Z"/></g></svg>