<?xml version="1.0" encoding="utf-8"?>
<!-- Generator: Adobe Illustrator 25.2.1, SVG Export Plug-In . SVG Version: 6.00 Build 0)  -->
<svg version="1.1" id="Warstwa_1" xmlns="http://www.w3.org/2000/svg" xmlns:xlink="http://www.w3.org/1999/xlink" x="0px" y="0px"
	 viewBox="0 0 356.7 279.8" style="enable-background:new 0 0 356.7 279.8;" xml:space="preserve">
<style type="text/css">
	.st0{fill:#FFD148;stroke:#FFD148;stroke-width:5;stroke-miterlimit:10;}
</style>
<g id="icon">
	<path class="st0" d="M351.5,52c-3.2-4.3-8.2-6.8-13.5-6.8H71.4L68,32c-2.7-10.6-12.3-17.9-23.2-17.9H8.7c-2.1,0-3.9,1.7-3.9,3.9
		c0,2.1,1.7,3.9,3.9,3.9h36.1c7.4,0,13.8,5,15.6,12.1l43.4,167.2c0.4,1.7,2,2.9,3.8,2.9h203.1c2.1,0,3.9-1.7,3.9-3.9
		c0-2.1-1.7-3.9-3.9-3.9c0,0,0,0,0,0h-200l-9.4-35.9h207.3c10.6,0,19.9-7,22.9-17.1l22.6-76.4C355.7,61.8,354.7,56.3,351.5,52z
		 M346.7,64.6l-22.6,76.4c-2,6.8-8.3,11.5-15.5,11.6H99.3L73.4,53.1h264.6c5,0,9,4,9.1,8.9C347.1,62.9,347,63.8,346.7,64.6z"/>
	<path class="st0" d="M142.7,273.4c-14.7,0-26.5-11.9-26.5-26.5c0-14.7,11.9-26.5,26.5-26.5c14.7,0,26.5,11.9,26.5,26.6
		C169.3,261.5,157.4,273.4,142.7,273.4z M142.7,228.1c-10.4,0-18.8,8.4-18.7,18.8c0,10.4,8.4,18.8,18.8,18.8
		c10.4,0,18.8-8.4,18.8-18.8C161.5,236.5,153.1,228.1,142.7,228.1L142.7,228.1z"/>
	<path class="st0" d="M270.4,273.4c-14.7,0-26.5-11.9-26.5-26.5c0-14.7,11.9-26.5,26.5-26.5c14.7,0,26.5,11.9,26.5,26.5c0,0,0,0,0,0
		C296.9,261.5,285,273.4,270.4,273.4z M270.4,228.1c-10.4,0-18.8,8.4-18.8,18.8c0,10.4,8.4,18.8,18.8,18.8
		c10.4,0,18.8-8.4,18.8-18.8C289.1,236.5,280.7,228.1,270.4,228.1L270.4,228.1z"/>
</g>
</svg>
