<svg xmlns="http://www.w3.org/2000/svg" viewBox="0 0 751 762"><defs><style>.cls-1,.cls-5{fill:none;stroke:#000;stroke-miterlimit:10;}.cls-1{stroke-width:7px;}.cls-2{font-size:182.48px;}.cls-2,.cls-3{font-family:Alice-Regular, Alice;}.cls-3{font-size:182.48px;}.cls-4{font-size:80px;font-family:OpenSans-Light, Open Sans;font-weight:300;}.cls-5{stroke-width:9px;}</style></defs><g id="Lag_1" data-name="Lag 1"><line class="cls-1" x1="150.3" y1="143.3" x2="588.7" y2="581.7"/><line class="cls-1" x1="597.63" y1="152.75" x2="159.22" y2="591.16"/><text class="cls-2" transform="translate(111.23 437.68)">B</text><text class="cls-2" transform="translate(322.22 630.92)">Y</text><text class="cls-3" transform="translate(513.65 437.68)">Ù</text><text class="cls-4" transform="translate(224.53 719.93) rotate(20.52)">S</text><text class="cls-4" transform="matrix(0.98, 0.22, -0.22, 0.98, 272.92, 737.42)">T</text><text class="cls-4" transform="translate(322.09 748.56) rotate(4.06)">U</text><text class="cls-4" transform="translate(388.49 752.46) rotate(-5.77)">D</text><text class="cls-4" transform="translate(451.92 744.5) rotate(-12.7)">I</text><text class="cls-4" transform="matrix(0.94, -0.34, 0.34, 0.94, 479.35, 739.15)">O</text><path class="cls-5" d="M203.25,685.13A361,361,0,0,1,167.67,662C78.71,596.47,21,491,21,372"/><path class="cls-5" d="M21,372C21,173.18,182.18,12,381,12S741,173.18,741,372c0,115.07-54,217.53-138,283.43a360.79,360.79,0,0,1-39.87,27.17"/></g><g id="Lag_2" data-name="Lag 2"><path class="cls-1" d="M283.29,156.76l40-50.76H435.56l40.74,50.76L378.37,277.57Z"/><path class="cls-1" d="M324.31,106l22.48,45.69,30.64-43.76q15.68,21.55,31.33,43.12,11.58-22.53,23.15-45.05"/><line class="cls-1" x1="283.61" y1="154.71" x2="472.42" y2="154.71"/><line class="cls-1" x1="378.45" y1="278" x2="346.55" y2="151.26"/><line class="cls-1" x1="376.72" y1="275.41" x2="408.62" y2="151.26"/></g></svg>