<svg id="Lag_1" data-name="Lag 1" xmlns="http://www.w3.org/2000/svg" viewBox="0 0 748 753"><defs><style>.cls-1,.cls-5{fill:none;stroke-miterlimit:10;}.cls-1,.cls-2,.cls-3,.cls-4,.cls-5{stroke:#fff;}.cls-1{stroke-width:7px;}.cls-2{font-size:182.48px;}.cls-2,.cls-3,.cls-4{fill:#fff;}.cls-2,.cls-3{font-family:Alice-Regular, Alice;}.cls-3{font-size:182.48px;}.cls-4{font-size:80px;font-family:OpenSans-Light, Open Sans;font-weight:300;}.cls-5{stroke-width:9px;}</style></defs><line class="cls-1" x1="144.95" y1="145.06" x2="583.36" y2="583.47"/><line class="cls-1" x1="592.28" y1="154.52" x2="153.88" y2="592.92"/><text class="cls-2" transform="translate(105.88 439.45)">B</text><text class="cls-2" transform="translate(316.88 632.68)">Y</text><text class="cls-3" transform="translate(508.31 439.45)">Ù</text><text class="cls-4" transform="translate(219.18 721.7) rotate(20.52)">S</text><text class="cls-4" transform="matrix(0.98, 0.22, -0.22, 0.98, 267.57, 739.19)">T</text><text class="cls-4" transform="translate(316.74 750.33) rotate(4.06)">U</text><text class="cls-4" transform="translate(383.14 754.22) rotate(-5.77)">D</text><text class="cls-4" transform="translate(446.57 746.26) rotate(-12.7)">I</text><text class="cls-4" transform="matrix(0.94, -0.34, 0.34, 0.94, 474, 740.92)">O</text><path class="cls-5" d="M197.91,686.89a358,358,0,0,1-35.58-23.11c-89-65.55-146.68-171-146.68-290"/><path class="cls-5" d="M15.65,373.76c0-198.82,161.18-360,360-360s360,161.18,360,360c0,115.07-54,217.53-138,283.44a361.23,361.23,0,0,1-39.87,27.17"/><path class="cls-1" d="M277.94,158.52l40-50.76H430.21L471,158.52,373,279.33Z"/><path class="cls-1" d="M319,107.76l22.47,45.7,30.65-43.77,31.32,43.12,23.16-45"/><line class="cls-1" x1="278.27" y1="156.48" x2="467.08" y2="156.48"/><line class="cls-1" x1="373.1" y1="279.76" x2="341.2" y2="153.03"/><line class="cls-1" x1="371.38" y1="277.18" x2="403.28" y2="153.03"/></svg>